<svg width="113" height="303" viewBox="0 0 113 303" fill="none" xmlns="http://www.w3.org/2000/svg">
<path d="M101.674 0.937012H11.7423V14.533H101.674V0.937012Z" fill="#FCE1B6"/>
<path d="M109.686 298.289C109.686 285.583 101.674 284.915 101.674 284.915V284.875H11.7423V284.915C11.7423 284.915 3.73035 285.583 3.73035 298.269H109.646H3.73035H0.715721V302.275H112.701V298.269H109.686V298.289Z" fill="#FCE1B6"/>
<path d="M49.4955 30.6176L48.1601 284.875H54.4928V30.6176H49.4955Z" fill="#F3CD97"/>
<path d="M44.4576 30.6176L41.8072 284.875H48.1601L49.4955 30.6176H44.4576Z" fill="#BD9863"/>
<path d="M39.4401 30.6176L35.4543 284.875H41.8072L44.4576 30.6176H39.4401Z" fill="#F3CD97"/>
<path d="M34.4225 30.6176L29.1014 284.875H35.4543L39.4401 30.6176H34.4225Z" fill="#BD9863"/>
<path d="M24.3874 30.6176L24.4278 30.6782L11.7423 284.875H22.7486L29.405 30.6176H24.3874Z" fill="#BD9863"/>
<path d="M29.405 30.6176L22.7486 284.875H29.1014L34.4225 30.6176H29.405Z" fill="#F3CD97"/>
<path d="M64.5279 30.6176L65.8633 284.875H72.2161L69.5657 30.6176H64.5279Z" fill="#BD9863"/>
<path d="M101.674 284.875L88.9683 30.6782L89.0088 30.6176H84.6184L91.2748 284.875H101.674Z" fill="#BD9863"/>
<path d="M59.5103 30.6176H54.4928V284.895H59.5103V30.6176Z" fill="#BD9863"/>
<path d="M84.6184 30.6176H79.6009L84.9219 284.875H91.2748L84.6184 30.6176Z" fill="#F3CD97"/>
<path d="M74.5833 30.6176L78.569 284.875H84.9219L79.6009 30.6176H74.5833Z" fill="#BD9863"/>
<path d="M59.5306 30.6176V284.875H65.8633L64.5279 30.6176H59.5306Z" fill="#F3CD97"/>
<path d="M69.5657 30.6176L72.2161 284.875H78.5691L74.5833 30.6176H69.5657Z" fill="#F3CD97"/>
<path d="M11.7423 14.6342L24.3874 30.6175H73.6728C55.5853 20.4003 21.13 15.7469 11.7423 14.6342Z" fill="#AE8447"/>
<path d="M11.7423 14.5127V14.6139C21.1502 15.7267 55.5853 20.3801 73.6931 30.5973H89.029L101.674 14.6139V14.4925H11.7423V14.5127Z" fill="#865F33"/>
</svg>
