<svg width="917" height="647" viewBox="0 0 917 647" fill="none" xmlns="http://www.w3.org/2000/svg">
<path d="M792.694 215.925H124.466V251.473L792.694 449.04V215.925Z" fill="#422717"/>
<path d="M792.694 455.069H124.466V564.08H792.694V455.069Z" fill="#654225"/>
<path d="M792.694 449.04L124.466 251.473V455.069H792.694V449.04Z" fill="#51321D"/>
<path d="M169.746 263.714H79.814V277.31H169.746V263.714Z" fill="#FCE1B6"/>
<path d="M177.758 561.066C177.758 548.36 169.746 547.692 169.746 547.692V547.652H79.814V547.692C79.814 547.692 71.802 548.36 71.802 561.045H177.717H71.802H68.7874V565.051H180.772V561.045H177.758V561.066Z" fill="#FCE1B6"/>
<path d="M117.547 293.394L116.232 547.652H122.564V293.394H117.547Z" fill="#F3CD97"/>
<path d="M112.529 293.394L109.879 547.652H116.232L117.547 293.394H112.529Z" fill="#BD9863"/>
<path d="M107.512 293.394L103.506 547.652H109.879L112.529 293.394H107.512Z" fill="#F3CD97"/>
<path d="M102.494 293.394L97.1732 547.652H103.506L107.512 293.394H102.494Z" fill="#BD9863"/>
<path d="M92.4591 293.394L92.4995 293.455L79.814 547.652H90.8203L97.4766 293.394H92.4591Z" fill="#BD9863"/>
<path d="M97.4766 293.394L90.8203 547.652H97.1731L102.494 293.394H97.4766Z" fill="#F3CD97"/>
<path d="M132.6 293.394L133.935 547.652H140.288L137.617 293.394H132.6Z" fill="#BD9863"/>
<path d="M169.726 547.652L157.04 293.455L157.081 293.394H152.69L159.347 547.652H169.726Z" fill="#BD9863"/>
<path d="M127.582 293.394H122.564V547.672H127.582V293.394Z" fill="#BD9863"/>
<path d="M152.69 293.394H147.652L152.994 547.652H159.347L152.69 293.394Z" fill="#F3CD97"/>
<path d="M142.655 293.394L146.641 547.652H152.994L147.652 293.394H142.655Z" fill="#BD9863"/>
<path d="M127.582 293.394V547.652H133.935L132.6 293.394H127.582Z" fill="#F3CD97"/>
<path d="M137.617 293.394L140.288 547.652H146.641L142.655 293.394H137.617Z" fill="#F3CD97"/>
<path d="M79.814 277.411L92.4591 293.394H141.745C123.657 283.177 89.2017 278.524 79.814 277.411Z" fill="#AE8447"/>
<path d="M79.814 277.29V277.391C89.2219 278.504 123.657 283.157 141.765 293.374H157.101L169.746 277.391V277.269H79.814V277.29Z" fill="#865F33"/>
<path d="M837.346 263.714H747.414V277.31H837.346V263.714Z" fill="#FCE1B6"/>
<path d="M845.378 561.066C845.378 548.36 837.366 547.692 837.366 547.692V547.652H747.414V547.692C747.414 547.692 739.402 548.36 739.402 561.045H845.318H739.402H736.388V565.051H848.373V561.045H845.378V561.066Z" fill="#FCE1B6"/>
<path d="M785.167 293.394L783.832 547.652H790.185V293.394H785.167Z" fill="#F3CD97"/>
<path d="M780.15 293.394L777.479 547.652H783.832L785.167 293.394H780.15Z" fill="#BD9863"/>
<path d="M775.132 293.394L771.126 547.652H777.479L780.15 293.394H775.132Z" fill="#F3CD97"/>
<path d="M770.115 293.394L764.794 547.652H771.126L775.132 293.394H770.115Z" fill="#BD9863"/>
<path d="M760.08 293.394L760.12 293.455L747.414 547.652H758.441L765.097 293.394H760.08Z" fill="#BD9863"/>
<path d="M765.097 293.394L758.441 547.652H764.794L770.115 293.394H765.097Z" fill="#F3CD97"/>
<path d="M800.22 293.394L801.555 547.652H807.908L805.238 293.394H800.22Z" fill="#BD9863"/>
<path d="M837.346 547.652L824.66 293.455L824.701 293.394H820.29L826.967 547.652H837.346Z" fill="#BD9863"/>
<path d="M795.203 293.394H790.185V547.672H795.203V293.394Z" fill="#BD9863"/>
<path d="M820.29 293.394H815.273L820.594 547.652H826.967L820.29 293.394Z" fill="#F3CD97"/>
<path d="M810.275 293.394L814.261 547.652H820.594L815.273 293.394H810.275Z" fill="#BD9863"/>
<path d="M795.203 293.394V547.652H801.555L800.22 293.394H795.203Z" fill="#F3CD97"/>
<path d="M805.238 293.394L807.908 547.652H814.261L810.275 293.394H805.238Z" fill="#F3CD97"/>
<path d="M747.414 277.411L760.059 293.394H809.345C791.257 283.177 756.822 278.524 747.414 277.411Z" fill="#AE8447"/>
<path d="M747.414 277.29V277.391C756.822 278.504 791.257 283.157 809.365 293.374H824.701L837.346 277.391V277.269H747.414V277.29Z" fill="#865F33"/>
<path d="M866.865 204.13H50.2952V215.703H866.865V204.13Z" fill="#F3CD97"/>
<path d="M866.865 138.194H50.2952V149.766H866.865V138.194Z" fill="#BD9863"/>
<path d="M855.211 149.787H61.9287V204.13H855.211V149.787Z" fill="#FAE3B9"/>
<path d="M477.942 183.19C477.942 173.539 466.653 173.701 466.653 173.701L465.459 178.86H466.046C466.046 178.86 466.491 175.886 469.849 175.886C473.228 175.886 475.089 178.658 475.089 181.126C475.089 183.594 473.349 186.589 469.667 186.589C466.895 186.589 466.288 184.99 466.288 184.99H454.958C452.996 181.693 450.588 176.958 449.192 174.146C454.736 176.513 459.936 179.852 464.447 182.967C464.447 182.967 458.62 174.389 458.62 167.55C458.62 160.712 464.71 159.458 464.71 159.458C464.71 159.458 467.745 158.749 464.71 158.749H443.446C443.446 157.839 443.446 156.908 443.446 155.937H442.03C442.03 156.908 442.03 157.839 442.03 158.749H423.174C423.174 158.749 417.65 160.57 417.65 167.368C417.65 174.166 422.243 179.305 422.243 179.305C422.243 179.305 423.538 174.672 428.596 172.305C429.324 175.077 430.943 181.106 432.278 185.011H428.859C428.859 185.011 425.541 184.91 425.541 181.733H414.899C414.899 181.733 415.769 177.99 414.798 176.392H411.965C411.965 176.392 413.058 178.172 413.058 180.6C413.058 183.028 411.844 191.121 402.577 191.121C402.577 191.121 400.736 191.02 399.704 190.554V192.234H425.642L428.778 195.208L430.417 197.959L431.955 196.341L429.122 194.844L426.37 192.234H431.712L434.848 195.208L436.486 197.959L438.024 196.341L435.192 194.844L432.44 192.234H437.781L440.917 195.208L442.556 197.959L444.094 196.341L441.261 194.844L438.51 192.234H443.851L446.987 195.208L448.626 197.959L450.163 196.341L447.331 194.844L444.579 192.234H449.921L453.057 195.208L454.695 197.959L456.233 196.341L453.401 194.844L450.649 192.234H455.99L459.126 195.208L460.765 197.959L462.303 196.341L459.47 194.844L456.719 192.234H462.06L465.196 195.208L466.835 197.959L468.372 196.341L465.54 194.844L462.788 192.234H468.089C468.19 192.234 477.942 192.82 477.942 183.19ZM454.23 184.99H450.426C449.152 181.308 447.756 176.21 446.967 173.256C447.513 173.458 448.059 173.681 448.606 173.903C449.88 176.574 452.328 181.591 454.23 184.99ZM446.522 173.094C447.23 175.947 448.606 181.288 449.799 184.99H444.114C444.013 183.271 443.79 179.143 443.628 172.163C444.579 172.447 445.55 172.75 446.522 173.094ZM441.889 171.738C441.747 178.982 441.504 183.251 441.403 185.011H438.146C435.677 181.227 432.015 173.984 430.761 171.516C432.056 171.172 433.512 170.949 435.192 170.949C437.458 170.949 439.683 171.233 441.889 171.738ZM428.98 172.123C429.425 171.941 429.891 171.759 430.376 171.617C431.469 173.863 435.07 181.227 437.377 184.99H432.966C431.489 180.985 429.769 174.955 428.98 172.123Z" fill="#BD9863"/>
<path d="M420.361 186.71C420.361 186.71 419.289 188.592 417.408 188.592C415.526 188.592 414.413 186.71 414.413 186.71C414.413 186.71 415.486 184.829 417.367 184.829C419.249 184.829 420.361 186.71 420.361 186.71Z" fill="#FAE3B9"/>
<path d="M417.387 187.54C417.845 187.54 418.217 187.168 418.217 186.71C418.217 186.252 417.845 185.881 417.387 185.881C416.929 185.881 416.558 186.252 416.558 186.71C416.558 187.168 416.929 187.54 417.387 187.54Z" fill="#BD9863"/>
<path d="M163.717 154.157L163.191 199.032H161.087L141.036 181.349L145.609 176.088L156.818 186.083V154.157H163.717Z" fill="#BD9863"/>
<path d="M207.418 193.974L201.005 195.754L198.739 188.592H187.854L185.325 195.855L178.951 193.953L192.73 157.07H194.368L207.418 193.974ZM196.857 182.724L193.498 171.738L189.877 182.724H196.857Z" fill="#BD9863"/>
<path d="M244.726 183.392L227.165 195.855L223.321 190.696L234.954 182.805L219.8 168.441L236.997 156.281L240.882 161.38L229.572 169.068L244.726 183.392Z" fill="#BD9863"/>
<path d="M292.069 175.987L274.913 195.552H273.759L256.825 175.987L273.759 156.463H274.913L292.069 175.987ZM283.754 175.987L274.346 164.88L264.979 175.987L274.346 187.135L283.754 175.987Z" fill="#BD9863"/>
<path d="M329.782 195.187H327.88L312.888 173.944V194.722H306.515V157.009H308.417L323.409 177.727V157.475H329.782V195.187Z" fill="#BD9863"/>
<path d="M581.328 197.352L574.328 199.133L571.637 190.716H557.697L554.804 199.234L547.804 197.292L564.212 153.732H565.79L581.328 197.352ZM569.594 184.201L564.92 169.311L559.923 184.201H569.594Z" fill="#BD9863"/>
<path d="M626.466 194.763L621.368 199.133L608.844 184.99L603.422 189.037V198.04H596.584L596.644 153.165H598.222L625.576 173.094L614.368 181.086L626.466 194.763ZM614.408 173.033L603.422 164.981V181.551L614.408 173.033Z" fill="#BD9863"/>
<path d="M669.237 199.032H667.133L638.039 175.886L663.188 153.064L668.387 158.163L647.973 175.583L662.378 186.629V171.799H669.217V199.032H669.237Z" fill="#BD9863"/>
<path d="M725.402 175.987L705.352 199.032H704.036L683.946 175.987L704.036 153.105H705.352L725.402 175.987ZM716.52 176.048L704.745 162.169L692.909 176.048L704.745 189.988L716.52 176.048Z" fill="#BD9863"/>
<path d="M765.603 184.768L744.986 199.173L740.94 193.711L755.042 184.141L736.732 167.045L757.045 153.105L761.314 158.466L747.313 167.672L765.603 184.768Z" fill="#BD9863"/>
<path d="M855.211 263.714V215.946H61.9287V235.692C151.072 237.635 554.298 247.063 795.122 263.714H855.211Z" fill="#FAE3B9"/>
<path d="M795.122 263.714C554.298 247.063 151.072 237.635 61.9287 235.692V263.714H795.122Z" fill="#BF9C5E"/>
<path d="M458.58 12.3496L832.45 138.194H866.865L458.58 0.776764L50.2952 138.194H84.7101L458.58 12.3496Z" fill="#FAE3B9"/>
<path d="M112.145 138.194H805.015L458.58 21.5754L112.145 138.194Z" fill="#EFCA9B"/>
<path d="M458.58 21.5754L805.015 138.194H832.45L458.58 12.3495L84.7101 138.194H112.145L458.58 21.5754Z" fill="#AE8447"/>
<path d="M54.0382 565.072V592.142H168.107C323.632 584.919 603.867 572.133 787.858 565.072H54.0382Z" fill="#EFCB9A"/>
<path d="M168.107 592.142H863.102V565.072H787.878C603.867 572.133 323.652 584.919 168.107 592.142Z" fill="#C09963"/>
<path d="M26.7652 592.142V619.213H148.522C314.547 611.99 613.68 599.203 810.093 592.142H26.7652Z" fill="#FBDBA6"/>
<path d="M148.522 619.193H890.395V592.122H810.093C613.68 599.183 314.547 611.97 148.522 619.193Z" fill="#AB8535"/>
<path d="M0.159973 619.193V646.263H129.423C305.665 639.04 623.229 626.254 831.742 619.193H0.159973Z" fill="#FFEAC0"/>
<path d="M129.423 646.263H917V619.193H831.742C623.229 626.254 305.665 639.04 129.423 646.263Z" fill="#836035"/>
</svg>
